<svg id="Ebene_1" data-name="Ebene 1" xmlns="http://www.w3.org/2000/svg" viewBox="0 0 512 512"><title>add-track</title><path d="M176,352a96,96,0,0,0,96-96V96A96,96,0,0,0,80,96V256A96,96,0,0,0,176,352ZM336,192H320a16,16,0,0,0-16,16v48A128.15,128.15,0,0,1,163.21,383.38C96.71,376.89,48,317.11,48,250.3V208a16,16,0,0,0-16-16H16A16,16,0,0,0,0,208v40.16C0,337.8,64,417.71,152,429.85V464H96a16,16,0,0,0-16,16v16a16,16,0,0,0,16,16H256a16,16,0,0,0,16-16V480a16,16,0,0,0-16-16H200V430.23C285.71,418.47,352,344.9,352,256V208A16,16,0,0,0,336,192Z"/><path d="M429.36,10.72A82.64,82.64,0,1,0,512,93.36,82.63,82.63,0,0,0,429.36,10.72Zm48,92a4,4,0,0,1-4,4H442.69v30.66a4,4,0,0,1-4,4H420a4,4,0,0,1-4-4V106.69H385.38a4,4,0,0,1-4-4V84a4,4,0,0,1,4-4H416V49.38a4,4,0,0,1,4-4h18.66a4,4,0,0,1,4,4V80h30.66a4,4,0,0,1,4,4Z"/></svg>