<?xml version="1.0" encoding="utf-8"?>
<!-- Generator: Adobe Illustrator 23.0.1, SVG Export Plug-In . SVG Version: 6.00 Build 0)  -->
<svg version="1.1" id="Ebene_1" xmlns="http://www.w3.org/2000/svg" xmlns:xlink="http://www.w3.org/1999/xlink" x="0px" y="0px"
	 viewBox="0 0 576 512" style="enable-background:new 0 0 576 512;" xml:space="preserve">
<style type="text/css">
	.st0{fill:#00BB88;}
</style>
<path class="st0" d="M384,121.9c0-6.3-2.5-12.4-7-16.9L279.1,7c-4.5-4.5-10.6-7-17-7H256v128h128V121.9z M192,336v-32
	c0-8.8,7.2-16,16-16h176V160H248c-13.2,0-24-10.8-24-24V0H24C10.7,0,0,10.7,0,24v464c0,13.3,10.7,24,24,24h336c13.3,0,24-10.7,24-24
	V352H208C199.2,352,192,344.8,192,336z M571,308l-95.7-96.4c-10.1-10.1-27.4-3-27.4,11.3V288h-64v64h64v65.2
	c0,14.3,17.3,21.4,27.4,11.3L571,332C577.6,325.4,577.6,314.6,571,308L571,308z"/>
</svg>
