<?xml version="1.0" encoding="utf-8"?>
<!-- Generator: Adobe Illustrator 23.0.1, SVG Export Plug-In . SVG Version: 6.00 Build 0)  -->
<svg version="1.1" id="Ebene_1" xmlns="http://www.w3.org/2000/svg" xmlns:xlink="http://www.w3.org/1999/xlink" x="0px" y="0px"
	 viewBox="0 0 1000 1000" style="enable-background:new 0 0 1000 1000;" xml:space="preserve">
<style type="text/css">
	.st0{fill:#00BB87;stroke:#FFFFFF;stroke-miterlimit:10;}
</style>
<g>
	<path class="st0" d="M290,500c3.9,0,7.7-0.2,11.5-0.5L430,850h70L363.9,478.9C403.6,454.2,430,410.2,430,360
		c0-77.3-62.7-140-140-140s-140,62.7-140,140S212.7,500,290,500z"/>
	<path class="st0" d="M537,35.1C531.2,20.4,516.8,10,500,10s-31.2,10.4-37,25.1l-59.5,148.3c24,15.4,44.6,35.6,60.5,59.1l25.5-66.6
		c1.6-4.2,5.7-7.2,10.5-7.2s8.9,3,10.5,7.2L780,881.3H220L297.3,679l-40.9-111.7c-2.1-0.3-4.3-0.7-6.4-1.1L80,990h840L537,35.1z"/>
</g>
</svg>
